<svg xmlns="http://www.w3.org/2000/svg"  viewBox="0 0 48 48" width="96px" height="96px" baseProfile="basic"><linearGradient id="s9H6BBaBl0vcQDJJDztGxa" x1="-57.108" x2="-31.524" y1="-78.013" y2="-52.429" gradientTransform="translate(63.855 84.758)" gradientUnits="userSpaceOnUse"><stop offset="0" stop-color="#ffd647"/><stop offset="1" stop-color="#f5bf00"/></linearGradient><path fill="url(#s9H6BBaBl0vcQDJJDztGxa)" d="M41.001,41.999H6.999c-2.205,0-4-1.795-4-4V9.998	c0-2.205,1.795-4,4-4h34.002c2.205,0,4,1.795,4,4v28.001C45.001,40.205,43.206,41.999,41.001,41.999z"/><linearGradient id="s9H6BBaBl0vcQDJJDztGxb" x1="-57.367" x2="-30.923" y1="-76.322" y2="-49.878" gradientTransform="translate(66.978 85.932)" gradientUnits="userSpaceOnUse"><stop offset="0" stop-color="#21ad64"/><stop offset="1" stop-color="#088242"/></linearGradient><path fill="url(#s9H6BBaBl0vcQDJJDztGxb)" d="M41,37.998l-4.999,0.001l-4-1l-4,1L7,37.998V9.999H41	V37.998z"/><path fill="#fff" d="M35.999,37.999h-7.999v-1.999h7.999V37.999z"/><path fill="#fff" d="M26.998,19.998c0-1.655-1.344-2.999-2.999-2.999	c-1.655,0-2.999,1.344-2.999,2.999c0,1.655,1.344,2.999,2.999,2.999C25.654,22.997,26.998,21.653,26.998,19.998z"/><path fill="#66d3a1" d="M17.999,22.999c0-1.104-0.896-2-2-2c-1.104,0-2,0.896-2,2	c0,1.104,0.896,2,2,2C17.103,24.999,17.999,24.103,17.999,22.999z"/><path fill="#ffbf00" d="M36.001,37.999h-8l4,4h8L36.001,37.999z"/><path fill="#66d3a1" d="M34.001,22.999c0-1.104-0.896-2-2-2c-1.104,0-2,0.896-2,2	c0,1.104,0.896,2,2,2C33.105,24.999,34.001,24.103,34.001,22.999z"/><path fill="#66d3a1" d="M37.001,28.687c0-0.445-0.164-0.875-0.468-1.2	c-0.693-0.739-2.169-1.488-4.532-1.488c-2.364,0-3.84,0.749-4.532,1.488c-0.305,0.325-0.469,0.755-0.469,1.2v1.312h10.001V28.687z"/><path fill="#66d3a1" d="M21.001,28.687c0-0.445-0.164-0.875-0.469-1.2	c-0.692-0.739-2.168-1.488-4.531-1.488c-2.364,0-3.84,0.749-4.533,1.488c-0.304,0.325-0.468,0.755-0.468,1.2v1.312h10.001V28.687z"/><path fill="#fff" d="M30.001,27.741c0-0.533-0.196-1.048-0.563-1.439	c-0.831-0.885-2.604-2.304-5.437-2.304c-2.835,0-4.608,1.419-5.439,2.304c-0.367,0.389-0.563,0.904-0.563,1.439v2.259h12.001V27.741	z"/></svg>