<?xml version="1.0" encoding="UTF-8"?>
<svg version="1.1" xmlns="http://www.w3.org/2000/svg" width="225" height="225">
<path d="M0 0 C16.53438693 15.04038299 27.67698367 33.85617348 33.62280273 55.39672852 C33.85483398 56.23461914 34.08686523 57.07250977 34.32592773 57.93579102 C41.45292501 86.74922287 35.16086439 117.97889031 20.52416992 143.29711914 C4.65525135 169.21683765 -20.90992777 186.74294568 -50.17407227 194.09985352 C-52.57072345 194.62086464 -54.95079596 195.04184669 -57.37719727 195.39672852 C-58.11454102 195.50758789 -58.85188477 195.61844727 -59.61157227 195.73266602 C-89.20395052 199.40688748 -119.12007495 192.58706243 -143.26000977 174.89672852 C-164.25511405 158.05854964 -178.61489907 137.64512284 -185.37719727 111.39672852 C-185.60922852 110.5137207 -185.84125977 109.63071289 -186.08032227 108.72094727 C-192.96592367 80.24406719 -186.84856478 49.64782079 -172.32592773 24.58227539 C-156.36359702 -1.36861598 -130.94823603 -18.9234014 -101.58032227 -26.30639648 C-99.18367108 -26.82740761 -96.80359857 -27.24838966 -94.37719727 -27.60327148 C-93.63985352 -27.71413086 -92.90250977 -27.82499023 -92.14282227 -27.93920898 C-58.35808317 -32.13395847 -25.58015589 -22.54481384 0 0 Z " fill="#0E2619" transform="translate(188.377197265625,28.603271484375)"/>
<path d="M0 0 C2.20758118 -0.00968025 4.41421946 -0.04075298 6.62158203 -0.07226562 C14.79819357 -0.13162647 22.19430646 0.4675533 29.97705078 3.24023438 C28.15084688 7.12730573 25.65607588 10.14614912 22.85205078 13.36523438 C19.39668511 17.36885591 16.05554957 21.40418355 12.85205078 25.61523438 C6.03855182 34.13210808 -1.34017366 39.16810035 -12.26904297 40.51757812 C-18.47980165 40.7943499 -24.14205975 39.08694359 -30.02294922 37.24023438 C-30.02294922 36.25023437 -30.02294922 35.26023438 -30.02294922 34.24023438 C-27.8242992 32.57336534 -25.69201455 31.15450831 -23.33544922 29.74023438 C-22.63806641 29.31242676 -21.94068359 28.88461914 -21.22216797 28.44384766 C-12.07214301 22.92633478 -2.54299364 18.08079372 6.97705078 13.24023438 C-5.97599125 17.23043635 -18.14365472 21.6884604 -30.02294922 28.24023438 C-30.96525391 28.75457031 -31.90755859 29.26890625 -32.87841797 29.79882812 C-50.35329184 39.79608155 -63.49066074 53.7151326 -69.60498047 73.08398438 C-71.6710042 83.7423498 -70.19762646 94.15069373 -64.70263672 103.48242188 C-60.00906752 110.27912045 -54.04407901 115.08822394 -46.02294922 117.24023438 C-37.13114926 118.08989526 -28.85316199 117.86646787 -21.02294922 113.24023438 C-18.6022271 111.15886782 -18.6022271 111.15886782 -17.02294922 109.24023438 C-16.36294922 109.24023438 -15.70294922 109.24023438 -15.02294922 109.24023438 C-9.56944213 98.48612226 -6.11116914 90.11600385 -9.14794922 78.11523438 C-11.7251163 70.47962773 -16.00762748 65.35353025 -22.89794922 61.24804688 C-30.44493785 57.66877653 -37.78562413 57.26292462 -46.02294922 58.24023438 C-50.32132753 59.81395758 -54.1310987 61.84677946 -58.02294922 64.24023438 C-59.01294922 64.73523438 -59.01294922 64.73523438 -60.02294922 65.24023438 C-56.93109554 55.3463026 -47.49218287 45.85175115 -39.02294922 40.24023438 C-28.30216544 38.6435219 -16.7272338 44.5500521 -8.16357422 50.54101562 C1.3892924 58.04382016 7.3757842 69.298078 8.97705078 81.24023438 C10.06302458 95.9453878 6.4320314 108.25640031 -3.02294922 119.65039062 C-11.27750395 128.47981613 -21.36407123 133.95673316 -33.53857422 134.57617188 C-48.42111978 134.86261417 -59.58271529 132.43084276 -71.02294922 122.24023438 C-81.72449199 111.22823729 -85.32482553 99.62155234 -85.33764648 84.67944336 C-85.04581777 66.51526454 -75.65858998 52.51382239 -63.02294922 40.24023438 C-56.07912899 34.24023438 -56.07912899 34.24023438 -53.02294922 34.24023438 C-53.12607422 32.94085938 -53.22919922 31.64148438 -53.33544922 30.30273438 C-53.2930235 23.53583229 -50.51487345 18.91218355 -45.96826172 14.03710938 C-32.89046448 1.81909811 -17.29722413 0.04576994 0 0 Z " fill="#16C565" transform="translate(146.02294921875,42.759765625)"/>
<path d="M0 0 C1 2 1 2 0.2578125 4.2421875 C-0.11601563 5.11101562 -0.48984375 5.97984375 -0.875 6.875 C-3.90755238 13.9792311 -4.18275954 19.81097899 -4.1875 27.5 C-4.19974609 28.54542969 -4.21199219 29.59085938 -4.22460938 30.66796875 C-4.22654297 31.67472656 -4.22847656 32.68148437 -4.23046875 33.71875 C-4.23457764 34.63591797 -4.23868652 35.55308594 -4.24291992 36.49804688 C-3.9885265 39.11817127 -3.32821818 40.74956344 -2 43 C-1.34 43 -0.68 43 0 43 C-0.020625 44.0725 -0.04125 45.145 -0.0625 46.25 C-0.0142016 49.14790424 0.13155885 51.28612141 1 54 C-1.48971237 51.76637233 -2.79842208 49.68553017 -4.125 46.625 C-4.45757812 45.87476563 -4.79015625 45.12453125 -5.1328125 44.3515625 C-9.59585328 32.24908255 -8.09583202 16.62326902 -3 5 C-2.03244814 3.31428912 -1.04137369 1.64113333 0 0 Z " fill="#28B669" transform="translate(68,102)"/>
<path d="M0 0 C0.66 0 1.32 0 2 0 C2 0.66 2 1.32 2 2 C2.99 1.67 3.98 1.34 5 1 C5.144375 1.886875 5.28875 2.77375 5.4375 3.6875 C7.73523774 8.558704 11.12410334 10.01986487 16 12 C23.85071459 14.51322401 31.88378647 14.9458464 39.4375 11.375 C40.7059375 10.694375 40.7059375 10.694375 42 10 C42.99 10.33 43.98 10.66 45 11 C43.730447 11.64834654 42.45930294 12.29357815 41.1875 12.9375 C40.47980469 13.29714844 39.77210937 13.65679687 39.04296875 14.02734375 C32.32363637 17.22641404 23.52107114 17.03773124 16.328125 15.38671875 C10.39367305 12.99820706 5.1942625 8.79344285 1 4 C0.25 1.75 0.25 1.75 0 0 Z " fill="#023512" transform="translate(81,145)"/>
<path d="M0 0 C-12.375 6.435 -12.375 6.435 -25 13 C-25.33 12.34 -25.66 11.68 -26 11 C-24.68 10.67 -23.36 10.34 -22 10 C-22 9.34 -22 8.68 -22 8 C-22.5775 8.350625 -23.155 8.70125 -23.75 9.0625 C-26.39786506 10.16577711 -27.33185326 9.80156509 -30 9 C-4.43382353 -1.47794118 -4.43382353 -1.47794118 0 0 Z " fill="#033716" transform="translate(155,56)"/>
<path d="M0 0 C-0.33 0.99 -0.66 1.98 -1 3 C-2.32 3 -3.64 3 -5 3 C-4.34 4.65 -3.68 6.3 -3 8 C-5 10 -5 10 -6.9453125 10.1953125 C-8.96354167 10.13020833 -10.98177083 10.06510417 -13 10 C-12.68600193 6.82753676 -12.40592546 5.38004974 -10.0390625 3.1640625 C-9.24242188 2.65617187 -8.44578125 2.14828125 -7.625 1.625 C-6.83351563 1.10164063 -6.04203125 0.57828125 -5.2265625 0.0390625 C-3 -1 -3 -1 0 0 Z " fill="#0E291A" transform="translate(119,72)"/>
<path d="M0 0 C0.99 0 1.98 0 3 0 C3.70147965 2.18238114 4.10608608 3.58648977 3.52905273 5.83569336 C2.93302591 8.27398493 2.91900514 10.37125803 2.97265625 12.87890625 C2.98490234 13.79994141 2.99714844 14.72097656 3.00976562 15.66992188 C3.04499443 17.60228724 3.08407286 19.53458616 3.12695312 21.46679688 C3.13791016 22.38654297 3.14886719 23.30628906 3.16015625 24.25390625 C3.17699463 25.09252197 3.19383301 25.9311377 3.21118164 26.79516602 C3 29 3 29 1 32 C-0.03111349 28.90665953 -0.10144761 26.83490567 -0.0625 23.59765625 C-0.05476563 22.54255859 -0.04703125 21.48746094 -0.0390625 20.40039062 C-0.01306654 18.17903592 0.01297496 15.95768175 0.0390625 13.73632812 C0.04679687 12.67994141 0.05453125 11.62355469 0.0625 10.53515625 C0.07410156 9.569729 0.08570313 8.60430176 0.09765625 7.60961914 C0.00882149 5.23573235 -0.42257581 3.28596254 -1 1 C-0.67 0.67 -0.34 0.34 0 0 Z " fill="#032D14" transform="translate(59,112)"/>
<path d="M0 0 C1.32 0.33 2.64 0.66 4 1 C-3.43028106 6.88230584 -10.49229726 9.04463613 -20 8 C-23.72244886 7.16582428 -27.36123548 6.14264007 -31 5 C-31 4.01 -31 3.02 -31 2 C-28.69 2.66 -26.38 3.32 -24 4 C-24 4.66 -24 5.32 -24 6 C-21.24849263 5.91288896 -18.50018367 5.80600385 -15.75 5.6875 C-14.97269531 5.66494141 -14.19539063 5.64238281 -13.39453125 5.61914062 C-8.92246855 5.40891546 -6.45347245 5.06701244 -3 2 C-2.01 2 -1.02 2 0 2 C0 1.34 0 0.68 0 0 Z " fill="#28B367" transform="translate(147,75)"/>
<path d="M0 0 C2.88929285 4.33393928 2.67797553 7.91175944 2 13 C0.06202624 19.29262397 -2.05022296 24.53673951 -7 29 C-7 23.91112715 -4.31781017 19.45732725 -2 15 C-1.34 15 -0.68 15 0 15 C0 10.05 0 5.1 0 0 Z " fill="#023916" transform="translate(137,123)"/>
<path d="M0 0 C5.445 1.485 5.445 1.485 11 3 C11 3.66 11 4.32 11 5 C11.7425 5.144375 12.485 5.28875 13.25 5.4375 C14.81360705 5.75732871 16.37389231 6.10062298 17.91503906 6.51538086 C20.01483077 7.0034472 21.95873565 7.20235719 24.109375 7.31640625 C24.86347656 7.35830078 25.61757812 7.40019531 26.39453125 7.44335938 C27.56048828 7.50233398 27.56048828 7.50233398 28.75 7.5625 C29.54277344 7.60568359 30.33554688 7.64886719 31.15234375 7.69335938 C33.10137815 7.79902991 35.05066748 7.89997966 37 8 C37 8.33 37 8.66 37 9 C23.66476054 9.50216383 10.95837294 9.8275782 0 1 C0 0.67 0 0.34 0 0 Z " fill="#29B369" transform="translate(80,168)"/>
<path d="M0 0 C0.33 0 0.66 0 1 0 C0.99214478 1.15786011 0.99214478 1.15786011 0.98413086 2.33911133 C0.96336758 5.83023263 0.95034189 9.32134095 0.9375 12.8125 C0.92912109 14.02744141 0.92074219 15.24238281 0.91210938 16.49414062 C0.90727539 18.23920898 0.90727539 18.23920898 0.90234375 20.01953125 C0.89710693 21.09307861 0.89187012 22.16662598 0.88647461 23.27270508 C0.87805412 26.09499365 0.87805412 26.09499365 2 29 C1.34 29.33 0.68 29.66 0 30 C-3.1636189 20.24550838 -3.19234573 9.77655881 0 0 Z " fill="#033813" transform="translate(77,110)"/>
<path d="M0 0 C0.33 0 0.66 0 1 0 C1 2.64 1 5.28 1 8 C0.34 8 -0.32 8 -1 8 C-1 8.99 -1 9.98 -1 11 C-1.66 11 -2.32 11 -3 11 C-3.1546875 11.86625 -3.1546875 11.86625 -3.3125 12.75 C-4.10896465 15.35661158 -5.19065277 16.9735311 -7 19 C-7.66 19 -8.32 19 -9 19 C-9.33 19.99 -9.66 20.98 -10 22 C-10.99 21.34 -11.98 20.68 -13 20 C-11.71034824 18.62437146 -10.37310707 17.29233607 -9 16 C-8.34 16 -7.68 16 -7 16 C-5.26400675 12.6578074 -3.81239108 9.22999945 -2.375 5.75 C-1.92898437 4.67234375 -1.48296875 3.5946875 -1.0234375 2.484375 C-0.51683594 1.25460938 -0.51683594 1.25460938 0 0 Z " fill="#25B265" transform="translate(138,136)"/>
<path d="M0 0 C0.66 0.33 1.32 0.66 2 1 C1.65066406 1.54527344 1.30132812 2.09054688 0.94140625 2.65234375 C-2.43704553 8.25119443 -3.68907215 12.47051512 -4 19 C-5.65 19.33 -7.3 19.66 -9 20 C-8.34 19.34 -7.68 18.68 -7 18 C-6.75684344 15.33050591 -6.75684344 15.33050591 -6.875 12.375 C-6.89304687 11.37210938 -6.91109375 10.36921875 -6.9296875 9.3359375 C-6.95289062 8.56507812 -6.97609375 7.79421875 -7 7 C-5.80310547 6.58621094 -5.80310547 6.58621094 -4.58203125 6.1640625 C-1.76518901 5.22118022 -1.76518901 5.22118022 -0.6875 2.375 C-0.460625 1.59125 -0.23375 0.8075 0 0 Z " fill="#043614" transform="translate(97,58)"/>
<path d="M0 0 C0.66 0.33 1.32 0.66 2 1 C-4.2459915 4.58566179 -7.81547574 6.14455856 -15.125 6.0625 C-15.87910156 6.05798828 -16.63320312 6.05347656 -17.41015625 6.04882812 C-19.27347127 6.03703499 -21.13674555 6.01909942 -23 6 C-23 5.34 -23 4.68 -23 4 C-22.01 3.96261719 -21.02 3.92523438 -20 3.88671875 C-12.81171148 3.55009468 -6.6744335 2.87916739 0 0 Z " fill="#26B066" transform="translate(123,157)"/>
<path d="M0 0 C0.33 0 0.66 0 1 0 C0.6815971 8.08743371 -0.70222301 15.55822399 -4 23 C-4.66 23.33 -5.32 23.66 -6 24 C-5.01 19.71 -4.02 15.42 -3 11 C-3.99 10.67 -4.98 10.34 -6 10 C-5.01 9.34 -4.02 8.68 -3 8 C-2.34 8.33 -1.68 8.66 -1 9 C-0.67 6.03 -0.34 3.06 0 0 Z " fill="#0B1710" transform="translate(222,130)"/>
<path d="M0 0 C6.78474935 0.30154442 12.6663446 2.78511134 18 7 C19.67189795 9.92463061 20.49107869 12.680948 21 16 C16 11 16 11 13.6875 8.4375 C10.87726633 5.88868342 8.285664 4.45745339 4.8671875 2.89453125 C3 2 3 2 0 0 Z " fill="#23AF65" transform="translate(115,100)"/>
<path d="M0 0 C0.33 0.99 0.66 1.98 1 3 C1.86625 2.67 2.7325 2.34 3.625 2 C6.95718275 1.01268659 9.55159538 0.83579026 13 1 C7 4 1 7 -5 10 C-3.66511872 6.40608886 -2.03977277 3.24509304 0 0 Z " fill="#28B568" transform="translate(91,98)"/>
<path d="M0 0 C0.66 0 1.32 0 2 0 C2.37125 0.78375 2.7425 1.5675 3.125 2.375 C6.68422963 9.45988162 10.70718847 16.08450476 16 22 C15.67 22.66 15.34 23.32 15 24 C10.35553585 19.32650795 6.80903453 14.32398427 3.5625 8.625 C3.20865234 8.00608887 2.85480469 7.38717773 2.49023438 6.74951172 C0 2.27325379 0 2.27325379 0 0 Z " fill="#0E1812" transform="translate(12,162)"/>
<path d="M0 0 C2.31 0.33 4.62 0.66 7 1 C7.061875 1.61875 7.12375 2.2375 7.1875 2.875 C7.828919 5.27761141 7.828919 5.27761141 10.5625 6.25 C11.366875 6.4975 12.17125 6.745 13 7 C12.34 7.66 11.68 8.32 11 9 C9.58280758 8.37619308 8.1662694 7.7508997 6.75 7.125 C5.96109375 6.77695313 5.1721875 6.42890625 4.359375 6.0703125 C2.21131392 5.09586095 0.10170798 4.07013571 -2 3 C-1.34 3 -0.68 3 0 3 C0 2.01 0 1.02 0 0 Z " fill="#06391B" transform="translate(120,81)"/>
<path d="M0 0 C0.66 0.66 1.32 1.32 2 2 C1.875 5 1.875 5 1 8 C-1.54714915 9.86790938 -2.80869 10 -6 10 C-5.34 9.01 -4.68 8.02 -4 7 C-4.66 7 -5.32 7 -6 7 C-6 6.01 -6 5.02 -6 4 C-3.5625 2.375 -3.5625 2.375 -1 1 C-0.67 0.67 -0.34 0.34 0 0 Z " fill="#11C863" transform="translate(88,81)"/>
<path d="M0 0 C2.475 0.495 2.475 0.495 5 1 C1.23550111 4.22773574 -2.70525067 6.61193007 -7.125 8.8125 C-8.05505859 9.29879883 -8.05505859 9.29879883 -9.00390625 9.79492188 C-10.63068197 10.61180818 -12.31372518 11.31430348 -14 12 C-14.99 11.67 -15.98 11.34 -17 11 C-14.71070947 9.82845707 -12.41881638 8.66261926 -10.125 7.5 C-9.47402344 7.16613281 -8.82304687 6.83226562 -8.15234375 6.48828125 C-3.2265625 4 -3.2265625 4 -1 4 C-0.67 2.68 -0.34 1.36 0 0 Z " fill="#0A160E" transform="translate(170,205)"/>
<path d="M0 0 C0.66 0.33 1.32 0.66 2 1 C1.360625 1.721875 0.72125 2.44375 0.0625 3.1875 C-1.98673535 5.98191184 -2.61332946 7.61663274 -3 11 C-3.598125 11.144375 -4.19625 11.28875 -4.8125 11.4375 C-6.56150404 11.8872439 -8.28677023 12.42892341 -10 13 C-8.48446596 9.52224821 -6.4226544 7.0442016 -3.875 4.25 C-3.15054687 3.45078125 -2.42609375 2.6515625 -1.6796875 1.828125 C-0.84824219 0.92320313 -0.84824219 0.92320313 0 0 Z " fill="#0E1A14" transform="translate(34,31)"/>
<path d="M0 0 C1.32 0.33 2.64 0.66 4 1 C2.6875 3.5 2.6875 3.5 1 6 C0.01 6 -0.98 6 -2 6 C-2 6.66 -2 7.32 -2 8 C-3.65 8.33 -5.3 8.66 -7 9 C-4.375 4.125 -4.375 4.125 -1 3 C-0.67 2.01 -0.34 1.02 0 0 Z " fill="#0F271A" transform="translate(101,81)"/>
<path d="M0 0 C-3.694374 2.03664208 -7.6274028 3.27208788 -11.625 4.5625 C-16.40415561 6.04859606 -16.40415561 6.04859606 -21 8 C-20 5 -20 5 -17.3125 3.4375 C-11.15711489 0.76629514 -6.66130559 -0.22970019 0 0 Z " fill="#023411" transform="translate(129,43)"/>
<path d="M0 0 C0.33 0.99 0.66 1.98 1 3 C0.34 3 -0.32 3 -1 3 C-1.33 4.32 -1.66 5.64 -2 7 C-2.66 7 -3.32 7 -4 7 C-4.103125 7.7425 -4.20625 8.485 -4.3125 9.25 C-5.04253504 12.17014018 -6.06789398 13.73187554 -8 16 C-7.5204985 9.60664663 -4.48051374 4.48051374 0 0 Z " fill="#28B469" transform="translate(101,56)"/>
<path d="M0 0 C7.47394574 -0.37369729 13.82140651 0.95938459 21 3 C17.63355643 4.0635083 14.81477017 4.00078718 11.3125 3.6875 C10.33925781 3.60886719 9.36601562 3.53023438 8.36328125 3.44921875 C7.19345703 3.22685547 7.19345703 3.22685547 6 3 C5.67 2.34 5.34 1.68 5 1 C3.35 1 1.7 1 0 1 C0 0.67 0 0.34 0 0 Z " fill="#08120D" transform="translate(122,1)"/>
<path d="M0 0 C-0.33 0.66 -0.66 1.32 -1 2 C-2.98 2 -4.96 2 -7 2 C-7 2.66 -7 3.32 -7 4 C-8.32 4 -9.64 4 -11 4 C-11.33 4.99 -11.66 5.98 -12 7 C-12.99 6.67 -13.98 6.34 -15 6 C-10.76325167 2.27679693 -5.77650185 -1.92550062 0 0 Z " fill="#043818" transform="translate(103,101)"/>
<path d="M0 0 C0 3.20395416 -0.74335022 5.09399739 -2 8 C-2.66 7.67 -3.32 7.34 -4 7 C-4.103125 7.639375 -4.20625 8.27875 -4.3125 8.9375 C-4.539375 9.618125 -4.76625 10.29875 -5 11 C-5.99 11.33 -6.98 11.66 -8 12 C-8.33 12.66 -8.66 13.32 -9 14 C-9.66 13.67 -10.32 13.34 -11 13 C-9.73147606 11.39400651 -8.460089 9.79027425 -7.1875 8.1875 C-6.47980469 7.29417969 -5.77210937 6.40085937 -5.04296875 5.48046875 C-3.43588623 3.52923089 -1.82959577 1.73725024 0 0 Z " fill="#25B168" transform="translate(81,85)"/>
<path d="M0 0 C2.0625 0.4375 2.0625 0.4375 4 1 C-1.35006016 4.28767869 -5.68368172 6.59683075 -12 7 C-9.81007563 4.53461344 -7.98987237 3.42095345 -4.875 2.375 C-2.19982058 1.57477307 -2.19982058 1.57477307 0 0 Z " fill="#26B368" transform="translate(130,169)"/>
<path d="M0 0 C0.33 0.99 0.66 1.98 1 3 C0.01 3.33 -0.98 3.66 -2 4 C-2.99 5.485 -2.99 5.485 -4 7 C-5.9453125 7.29296875 -5.9453125 7.29296875 -8.125 7.1875 C-9.40375 7.125625 -10.6825 7.06375 -12 7 C-8.35140239 3.95950199 -4.2555467 2.03481238 0 0 Z " fill="#24BB6A" transform="translate(153,56)"/>
<path d="M0 0 C-2.72294063 2.72294063 -5.29135602 3.02724092 -9 4 C-10.31345624 4.37163684 -11.62601062 4.74648071 -12.9375 5.125 C-13.948125 5.41375 -14.95875 5.7025 -16 6 C-11.97115039 1.13180672 -6.24917557 -2.05051073 0 0 Z " fill="#27B369" transform="translate(122,47)"/>
<path d="M0 0 C0.66 0.33 1.32 0.66 2 1 C-1.4201117 4.84762566 -5.46774256 7.60634022 -10 10 C-10.66 10 -11.32 10 -12 10 C-12 9.34 -12 8.68 -12 8 C-10.02559073 6.5368217 -8.06761129 5.19286936 -6 3.875 C-5.42765625 3.50246094 -4.8553125 3.12992188 -4.265625 2.74609375 C-2.84778218 1.82449592 -1.42439275 0.91144179 0 0 Z " fill="#0C1912" transform="translate(55,15)"/>
<path d="M0 0 C1.24546405 2.49092811 0.7767578 3.41080733 0 6 C-0.66 6 -1.32 6 -2 6 C-2.33 7.32 -2.66 8.64 -3 10 C-2.01 10.33 -1.02 10.66 0 11 C-0.66 11.66 -1.32 12.32 -2 13 C-2.66 13 -3.32 13 -4 13 C-4.99 13.495 -4.99 13.495 -6 14 C-5.41892368 10.2397015 -4.34800504 7.46964968 -2.4375 4.1875 C-1.98246094 3.39730469 -1.52742187 2.60710938 -1.05859375 1.79296875 C-0.53458984 0.90544922 -0.53458984 0.90544922 0 0 Z " fill="#0B1811" transform="translate(15,56)"/>
<path d="M0 0 C-3.01505452 2.01003635 -5.57496212 2.99171541 -9 4.125 C-10.051875 4.47820313 -11.10375 4.83140625 -12.1875 5.1953125 C-15 6 -15 6 -18 6 C-15.63860783 3.24504247 -13.58947346 2.30761472 -10.125 1.3125 C-9.28195313 1.06113281 -8.43890625 0.80976562 -7.5703125 0.55078125 C-4.96661379 -0.00715419 -2.65399031 -0.09988136 0 0 Z " fill="#0E1912" transform="translate(89,3)"/>
<path d="M0 0 C0.33 0 0.66 0 1 0 C1.22171552 2.60365928 1.42784859 5.20696493 1.625 7.8125 C1.68945312 8.55048828 1.75390625 9.28847656 1.8203125 10.04882812 C2.2265625 15.66015625 2.2265625 15.66015625 0 19 C-1.10914408 12.46837378 -0.78441153 6.56492112 0 0 Z " fill="#064821" transform="translate(60,125)"/>
<path d="M0 0 C0.2475 0.61875 0.495 1.2375 0.75 1.875 C2.20628639 4.35068687 3.37812506 4.95125002 6 6 C6 7.98 6 9.96 6 12 C3.38774841 9.51836099 1.03495023 6.97974855 -1 4 C-0.75 1.6875 -0.75 1.6875 0 0 Z " fill="#063214" transform="translate(144,96)"/>
<path d="M0 0 C0.99 0.33 1.98 0.66 3 1 C-1.455 4.465 -1.455 4.465 -6 8 C-6.33 6.68 -6.66 5.36 -7 4 C-5 2 -5 2 -2.375 1.875 C-1.59125 1.91625 -0.8075 1.9575 0 2 C0 1.34 0 0.68 0 0 Z " fill="#25B469" transform="translate(104,75)"/>
<path d="M0 0 C3.44428265 1.44781793 5.36130962 3.27694609 7.75 6.125 C8.36359375 6.84945312 8.9771875 7.57390625 9.609375 8.3203125 C10.29773438 9.15175781 10.29773438 9.15175781 11 10 C10.01 10.495 10.01 10.495 9 11 C6.03595495 8.19195732 3.55500981 5.81684226 2 2 C1.34 2 0.68 2 0 2 C0 1.34 0 0.68 0 0 Z " fill="#0D1511" transform="translate(187,29)"/>
<path d="M0 0 C2.97 0.495 2.97 0.495 6 1 C4.50902342 4.7952131 2.24299151 6.61042731 -1 9 C-0.649375 8.071875 -0.29875 7.14375 0.0625 6.1875 C1.32382628 3.0197047 1.32382628 3.0197047 0 0 Z " fill="#2DB86D" transform="translate(170,45)"/>
<path d="M0 0 C0 0.66 0 1.32 0 2 C-1.32 2 -2.64 2 -4 2 C-4 2.66 -4 3.32 -4 4 C-6.3125 6.1875 -6.3125 6.1875 -9 8 C-9.99 7.67 -10.98 7.34 -12 7 C-10.56967163 5.82455195 -9.13046758 4.65989738 -7.6875 3.5 C-6.88699219 2.8503125 -6.08648437 2.200625 -5.26171875 1.53125 C-3 0 -3 0 0 0 Z " fill="#24B268" transform="translate(94,77)"/>
<path d="M0 0 C0 2.62113708 -0.31292445 4.50935112 -1 7 C-3.31 7.66 -5.62 8.32 -8 9 C-7.04270084 7.87411986 -6.08412105 6.7493285 -5.125 5.625 C-4.59132813 4.99851562 -4.05765625 4.37203125 -3.5078125 3.7265625 C-2.38567993 2.44163349 -1.20628025 1.20628025 0 0 Z " fill="#25B96B" transform="translate(100,89)"/>
<path d="M0 0 C3.26008643 3.16952847 6.22237877 6.39937989 9 10 C6.625 9.75 6.625 9.75 4 9 C2.8125 7.25 2.8125 7.25 2 5 C1.62875 4.0925 1.2575 3.185 0.875 2.25 C0.58625 1.5075 0.2975 0.765 0 0 Z " fill="#033110" transform="translate(68,157)"/>
<path d="M0 0 C0.66 0 1.32 0 2 0 C2 0.66 2 1.32 2 2 C2.598125 2.226875 3.19625 2.45375 3.8125 2.6875 C6.56351888 4.33811133 7.52484637 6.1972081 9 9 C5.18063472 7.44396229 2.73955562 5.04395069 0 2 C0 1.34 0 0.68 0 0 Z " fill="#0D1711" transform="translate(29,187)"/>
<path d="M0 0 C-0.33 1.65 -0.66 3.3 -1 5 C-2.32 5.33 -3.64 5.66 -5 6 C-5 3 -5 3 -3.625 1.3125 C-2 0 -2 0 0 0 Z " fill="#043319" transform="translate(164,64)"/>
<path d="M0 0 C3 2 3 2 3.51171875 4.1640625 C3.56972656 4.97617188 3.62773437 5.78828125 3.6875 6.625 C3.75324219 7.44226563 3.81898438 8.25953125 3.88671875 9.1015625 C3.92410156 9.72804688 3.96148437 10.35453125 4 11 C2 10 2 10 0.875 7.1875 C0 4 0 4 0 0 Z " fill="#22AC62" transform="translate(136,116)"/>
<path d="M0 0 C0.99 0.33 1.98 0.66 3 1 C-0.465 3.97 -0.465 3.97 -4 7 C-4.33 5.68 -4.66 4.36 -5 3 C-3.35 2.67 -1.7 2.34 0 2 C0 1.34 0 0.68 0 0 Z " fill="#033716" transform="translate(99,87)"/>
<path d="M0 0 C1.32 0.33 2.64 0.66 4 1 C1.03 2.65 -1.94 4.3 -5 6 C-5.33 5.01 -5.66 4.02 -6 3 C-4.02 2.67 -2.04 2.34 0 2 C0 1.34 0 0.68 0 0 Z " fill="#24B167" transform="translate(113,69)"/>
<path d="M0 0 C0.66 0.33 1.32 0.66 2 1 C-0.31 3.64 -2.62 6.28 -5 9 C-5 6 -5 6 -3 3 C-2.34 3 -1.68 3 -1 3 C-0.67 2.01 -0.34 1.02 0 0 Z " fill="#29B86B" transform="translate(145,156)"/>
<path d="M0 0 C0.66 0.99 1.32 1.98 2 3 C0.68 4.32 -0.64 5.64 -2 7 C-2.66 6.67 -3.32 6.34 -4 6 C-2.68 4.02 -1.36 2.04 0 0 Z " fill="#0D1C12" transform="translate(20,48)"/>
<path d="M0 0 C1 3 1 3 0.3125 5.5625 C-1.16086774 8.29875437 -2.13522966 8.94958421 -5 10 C-3.66511872 6.40608886 -2.03977277 3.24509304 0 0 Z " fill="#2DAA65" transform="translate(91,98)"/>
<path d="M0 0 C-1.36983503 3.16115776 -1.9890638 3.9927092 -5 6 C-5.33 4.68 -5.66 3.36 -6 2 C-3 0 -3 0 0 0 Z " fill="#24B76B" transform="translate(92,87)"/>
<path d="M0 0 C0 0.66 0 1.32 0 2 C-3.13498292 3.85776765 -5.37471432 4.20140476 -9 4 C-7 1 -7 1 -4.5 0.3125 C-2 0 -2 0 0 0 Z " fill="#04381D" transform="translate(143,81)"/>
<path d="M0 0 C-2.97 1.32 -5.94 2.64 -9 4 C-9 3.01 -9 2.02 -9 1 C-3.375 -1.125 -3.375 -1.125 0 0 Z " fill="#03541A" transform="translate(155,56)"/>
</svg>
